<?xml version="1.0" standalone="no"?>
<!DOCTYPE svg PUBLIC "-//W3C//DTD SVG 20010904//EN"
 "http://www.w3.org/TR/2001/REC-SVG-20010904/DTD/svg10.dtd">
<svg version="1.0" xmlns="http://www.w3.org/2000/svg"
 width="939.000000pt" height="939.000000pt" viewBox="0 0 939.000000 939.000000"
 preserveAspectRatio="xMidYMid meet">
<metadata>
Created by potrace 1.14, written by Peter Selinger 2001-2017
</metadata>
<g transform="translate(0.000000,939.000000) scale(0.100000,-0.100000)"
fill="#000000" stroke="none">
<path d="M4685 8944 c-202 -38 -342 -93 -505 -200 -172 -112 -310 -259 -417
-444 -31 -52 -78 -130 -104 -173 -27 -43 -49 -79 -49 -82 0 -2 -59 -106 -131
-232 -233 -404 -690 -1196 -729 -1263 -163 -278 -340 -588 -371 -651 -163
-324 -177 -730 -36 -1070 120 -289 315 -504 602 -665 92 -51 95 -53 294 -169
94 -55 183 -106 196 -113 27 -14 25 -23 -15 -82 -9 -14 -31 -50 -47 -80 -17
-30 -81 -143 -143 -250 -62 -107 -121 -208 -130 -225 -10 -16 -49 -84 -87
-150 -63 -108 -270 -467 -321 -555 -11 -19 -84 -147 -163 -285 -174 -302 -165
-285 -183 -364 -30 -131 -2 -287 76 -419 44 -74 168 -198 243 -243 74 -43 181
-85 254 -99 110 -21 260 -8 355 29 16 6 30 10 31 9 2 -2 20 -33 40 -70 178
-326 508 -567 880 -643 168 -35 399 -32 555 6 253 62 469 184 643 364 113 117
138 155 437 675 144 252 192 334 266 460 18 30 99 172 182 315 82 143 267 463
410 710 297 516 312 543 353 667 69 206 85 437 44 666 -10 57 -57 208 -83 267
-90 204 -238 393 -412 524 -41 31 -192 123 -335 206 -143 82 -262 152 -265
156 -3 3 -14 9 -25 13 -11 3 -31 15 -44 25 l-24 18 83 143 c45 79 90 157 100
174 25 45 425 736 447 773 30 52 146 254 176 308 16 27 39 67 53 87 13 21 24
40 24 43 0 2 29 53 64 112 153 259 173 311 174 439 2 280 -205 541 -500 632
-151 47 -308 46 -425 -3 -41 -17 -53 -19 -53 -6 0 6 -17 38 -37 73 -172 297
-454 517 -783 611 -117 34 -142 37 -325 42 -116 3 -182 0 -240 -11z"/>
</g>
</svg>
