<?xml version="1.0" encoding="UTF-8" standalone="no"?>
<svg xmlns="http://www.w3.org/2000/svg"
     version="1.1"
     height="45"
     viewBox="0 0 651.82129 1137.2701">
        <clipPath id="clipPath1074">
            <path d="M 0,1080 H 2610.021 V 0 H 0 Z" id="path1072"/>
        </clipPath>
        <clipPath id="clipPath1086">
            <path d="m 1161,923.404 h 253 v -316 h -253 z" id="path1084"/>
        </clipPath>
        <clipPath id="clipPath1090">
            <path d="m 1161,923.404 h 253 v -316 h -253 z" id="path1088"/>
        </clipPath>
    <g id="g1066" transform="matrix(1.3333333,0,0,-1.3333333,-1414.1035,1288.6348)">
        <g id="g1070" clip-path="url(#clipPath1074)">
            <g id="g1076" transform="translate(1371.6992,655.0078)">
                <path d="m 0,0 66.867,115.818 c 36.015,62.378 14.643,142.142 -47.736,178.156 -62.378,36.014 -142.142,14.641 -178.155,-47.737 L -293.627,13.1 c -36.014,-62.378 -14.642,-142.141 47.737,-178.156 37.504,-21.653 75.009,-43.306 112.513,-64.959 -22.289,-38.606 -44.578,-77.213 -66.868,-115.819 -36.014,-62.378 -14.642,-142.141 47.737,-178.155 62.378,-36.015 142.141,-14.642 178.155,47.736 l 134.602,233.138 c 36.015,62.378 14.643,142.141 -47.736,178.155 z" style="fill:#3babff;fill-opacity:1;fill-rule:nonzero;stroke:none" id="path1078"/>
            </g>
            <g id="g1122" transform="translate(1140.5215,185.4013)">
                <path d="m 0,0 c -11.898,0 -23.905,3.302 -34.726,9.548 -29.707,17.151 -41.992,51.686 -27.387,76.984 l 345.454,598.343 c 8.793,15.229 25.854,24.322 45.638,24.322 11.898,0 23.905,-3.301 34.725,-9.548 29.707,-17.151 41.992,-51.686 27.388,-76.984 L 45.638,24.322 C 36.845,9.093 19.783,0 0,0" style="fill:#f23667;fill-opacity:1;fill-rule:nonzero;stroke:none" id="path1124"/>
            </g>
            <g id="g1130" transform="translate(1284.2783,115.5234)">
                <path d="m 0,0 c -22.406,0 -44.567,5.957 -64.087,17.228 -61.323,35.405 -82.41,114.099 -47.005,175.422 l 66.868,115.82 c 0.265,0.459 0.337,1.005 0.2,1.517 -0.137,0.513 -0.473,0.95 -0.932,1.215 l -112.513,64.959 c -29.706,17.151 -50.955,44.843 -59.834,77.977 -8.878,33.132 -4.322,67.74 12.829,97.446 l 123.277,213.52 c 7.334,-91.815 23.285,-145.845 85.337,-183.547 0.032,-0.02 0.064,-0.039 0.098,-0.057 l 82.243,-43.781 112.453,-64.927 c 29.707,-17.15 50.956,-44.843 59.834,-77.977 8.878,-33.132 4.321,-67.74 -12.831,-97.446 L 111.336,64.231 C 88.462,24.612 45.801,0 0,0" style="fill:#605cff;fill-opacity:1;fill-rule:nonzero;stroke:none" id="path1132"/>
            </g>
            <g id="g1134" transform="translate(1204.5791,887.2226)" style="fill:#605cff;fill-opacity:1">
                <path d="m 0,0 -126.507,-219.115 c -36.014,-62.379 -14.64,-142.141 47.737,-178.155 37.505,-21.654 75.009,-43.306 112.513,-64.96 -22.289,-38.606 -44.578,-77.212 -66.868,-115.819 -36.014,-62.379 -14.642,-142.14 47.737,-178.155 20.54,-11.858 42.96,-17.495 65.088,-17.495 45.071,0 88.912,23.393 113.068,65.231 l 134.601,233.138 c 36.015,62.379 14.642,142.141 -47.736,178.155 l -112.513,64.96 -82.243,43.781 C 24.366,-151.668 7.515,-101.114 0,0 m -2.963,-13.132 c 7.632,-88.628 24.436,-141.458 85.763,-178.72 0.064,-0.039 0.131,-0.076 0.197,-0.112 l 82.184,-43.751 112.452,-64.924 c 29.244,-16.884 50.162,-44.145 58.901,-76.762 8.74,-32.617 4.255,-66.685 -12.629,-95.929 L 189.304,-706.468 c -11.303,-19.577 -27.622,-35.767 -47.194,-46.821 -19.006,-10.735 -40.588,-16.41 -62.41,-16.41 -22.056,0 -43.872,5.865 -63.088,16.959 -29.244,16.885 -50.162,44.145 -58.902,76.761 -8.739,32.618 -4.254,66.686 12.63,95.93 l 66.868,115.819 c 1.105,1.914 0.448,4.359 -1.465,5.464 l -53.118,30.668 -59.395,34.291 c -29.244,16.885 -50.162,44.146 -58.902,76.763 -8.739,32.616 -4.254,66.685 12.63,95.929 L -2.963,-13.132" style="fill:#605cff;fill-opacity:1;fill-rule:nonzero;stroke:none" id="path1136"/>
            </g>
        </g>
    </g>
</svg>
